<?xml version="1.0" encoding="UTF-8" standalone="no"?><!DOCTYPE svg PUBLIC "-//W3C//DTD SVG 1.1//EN" "http://www.w3.org/Graphics/SVG/1.1/DTD/svg11.dtd"><svg width="100%" height="100%" viewBox="0 0 205 35" version="1.1" xmlns="http://www.w3.org/2000/svg" xmlns:xlink="http://www.w3.org/1999/xlink" xml:space="preserve" style="fill-rule:evenodd;clip-rule:evenodd;stroke-linejoin:round;stroke-miterlimit:1.41421;"><rect id="Artboard7" x="0" y="0" width="204.094" height="34.016" style="fill:none;"/><clipPath id="_clip1"><rect x="0" y="0" width="204.094" height="34.016"/></clipPath><g clip-path="url(#_clip1)"><path d="M56.693,32.461c0,1.546 1.13,1.555 1.784,1.555c0.724,0 1.819,-0.009 1.819,-1.484c0,-1.272 -1.068,-1.528 -1.757,-1.74c-0.636,-0.203 -1.343,-0.371 -1.343,-1.183c0,-0.954 0.742,-0.919 1.299,-0.919c0.459,0 1.289,-0.009 1.289,1.078c0,0.061 0.097,0.061 0.212,0.061c0.106,0 0.212,0 0.212,-0.061c0,-1.502 -1.13,-1.511 -1.722,-1.511c-0.671,0 -1.714,0.009 -1.714,1.36c0,1.06 0.822,1.308 1.546,1.555c0.733,0.247 1.546,0.388 1.546,1.351c0,1.078 -0.742,1.06 -1.387,1.06c-0.53,0 -1.351,0.026 -1.351,-1.122c0,-0.053 -0.106,-0.061 -0.212,-0.061c-0.115,0 -0.221,0.008 -0.221,0.061Zm56.693,-4.142c0,0 0,3.842 0,4.072c0,1.687 1.325,1.616 1.784,1.616c0.468,0 1.757,0.071 1.757,-1.616c0,-0.239 0,-4.019 0,-4.072c0,-0.062 -0.106,-0.062 -0.212,-0.062c-0.114,0 -0.22,0 -0.22,0.062c0,0.08 0,3.886 0,4.072c0,1.236 -0.804,1.192 -1.334,1.192c-0.503,0 -1.342,0.026 -1.342,-1.192c0,-1.193 0,-4.019 0,-4.072c0,-0.062 -0.106,-0.062 -0.212,-0.062c-0.115,0 -0.221,0 -0.221,0.062Zm86.929,5.688c0.813,0 1.873,-0.009 1.873,-2.87c0,-2.862 -1.051,-2.88 -1.873,-2.88c-0.768,0 -1.89,0.009 -1.89,2.88c0,2.87 1.131,2.87 1.89,2.87Zm-56.931,-5.75c0.698,0 1.819,-0.026 1.819,2.871c0,2.852 -1.104,2.87 -1.748,2.87l-1.723,0l0,-5.741l1.652,0Zm29.848,0c0.053,0 0.053,0.098 0.053,0.221c0,0.115 0,0.212 -0.053,0.212l-1.334,0l0,4.884l1.334,0c0.053,0 0.053,0.088 0.053,0.221c0,0.124 -0.009,0.203 -0.053,0.203l-3.1,0c-0.053,0 -0.053,-0.097 -0.053,-0.203c0,-0.115 0,-0.221 0.053,-0.221l1.333,0l0,-4.884l-1.333,0c-0.053,0 -0.053,-0.097 -0.053,-0.212c0,-0.123 0,-0.221 0.053,-0.221l3.1,0Zm-84.413,0c0.053,0 0.062,0.098 0.062,0.221c0,0.115 -0.009,0.212 -0.062,0.212l-1.642,0l0,5.255c0,0.053 -0.097,0.053 -0.212,0.053c-0.124,0 -0.221,-0.009 -0.221,-0.053l0,-5.255l-1.652,0c-0.053,0 -0.053,-0.097 -0.053,-0.212c0,-0.123 0,-0.221 0.053,-0.221l3.727,0Zm111.496,5.326c-0.592,0 -1.457,0.106 -1.457,-2.446c0,-2.553 0.848,-2.447 1.448,-2.447c0.645,0 1.449,-0.106 1.449,2.447c0,2.561 -0.813,2.446 -1.44,2.446Zm-58.159,-0.009l0,-4.884c0,0 0.804,0 1.263,0c0.539,0 1.351,-0.097 1.351,2.455c0,2.526 -0.847,2.429 -1.324,2.429c-0.627,0 -1.29,0 -1.29,0Zm1.466,-27.824c0.813,0 1.873,-0.009 1.873,-2.871c0,-2.861 -1.051,-2.879 -1.873,-2.879c-0.768,0 -1.89,0.009 -1.89,2.879c0,2.871 1.131,2.871 1.89,2.871Zm28.347,0c0.812,0 1.872,-0.009 1.872,-2.871c0,-2.861 -1.051,-2.879 -1.872,-2.879c-0.769,0 -1.89,0.009 -1.89,2.879c0,2.871 1.13,2.871 1.89,2.871Zm28.108,-5.75c0.698,0 1.819,-0.026 1.819,2.87c0,2.853 -1.104,2.871 -1.749,2.871l-1.722,0l0,-5.741l1.652,0Zm-83.547,5.087c0.336,-1.113 0.698,-2.526 0.698,-3.515c0,-0.185 0.009,-1.342 0.009,-1.51c0,-0.062 0.097,-0.062 0.212,-0.062c0.114,0 0.211,0 0.211,0.062l0,1.51c0,1.051 -0.388,2.641 -0.821,3.992c-0.062,0.177 -0.132,0.177 -0.23,0.177l-0.185,0c-0.097,0 -0.159,0 -0.221,-0.186l-0.097,-0.274c-0.159,-0.45 -0.362,-1.201 -0.574,-2.031c-0.309,1.078 -0.627,2.137 -0.689,2.305c-0.071,0.186 -0.132,0.186 -0.212,0.186l-0.212,0c-0.088,0 -0.15,0 -0.221,-0.186c-0.424,-1.351 -0.812,-2.95 -0.812,-3.983l0,-1.51c0,-0.062 0.097,-0.062 0.212,-0.062c0.106,0 0.212,0 0.212,0.062l0,1.51c0,0.998 0.38,2.402 0.715,3.515c0.406,-1.103 0.706,-2.462 0.716,-2.464l0.565,0c0,0.003 0.309,1.353 0.697,2.464l0.027,0Zm-112.918,-2.446l0,1.475c0,1.616 -1.166,1.625 -1.704,1.625c-0.76,0 -1.908,0 -1.908,-2.888c0,-2.844 1.148,-2.853 1.881,-2.853c0.521,0 1.263,0.009 1.555,0.927c0.017,0.053 -0.089,0.08 -0.186,0.115c-0.106,0.035 -0.203,0.062 -0.221,0.009c-0.194,-0.654 -0.777,-0.618 -1.148,-0.618c-0.592,0 -1.448,-0.115 -1.448,2.42c0,2.57 0.856,2.464 1.466,2.464c0.406,0 1.28,0.088 1.28,-1.175l0,-1.077l-1.183,0c-0.053,0 -0.053,-0.097 -0.053,-0.212c0,-0.106 0,-0.212 0.053,-0.212l1.616,0Zm28.046,3.1l-3.312,0l0,-5.679c0,-0.053 0.098,-0.062 0.221,-0.062c0.115,0 0.212,0.009 0.212,0.062l0,5.246l2.879,0c0.053,0 0.062,0.097 0.062,0.212c0,0.124 -0.009,0.221 -0.062,0.221Zm28.232,-5.741c0.053,0 0.053,0.097 0.053,0.221c0,0.115 0,0.212 -0.053,0.212l-2.764,0l0,2.208l2.455,0c0.053,0 0.053,0.106 0.053,0.221c0,0.114 0,0.211 -0.053,0.212l-2.455,0l0,2.234l2.764,0c0.053,0 0.053,0.097 0.053,0.212c0,0.124 0,0.221 -0.053,0.221l-3.197,0l0,-5.741l3.197,0Zm25.723,0c0.124,0 0.195,0.124 0.212,0.168c0,0 0.566,1.174 1.184,2.702c0.565,1.369 1.007,2.261 1.007,2.261l0.07,0l0,-5.069c0,-0.062 0.106,-0.062 0.212,-0.062c0.106,0 0.221,0.009 0.221,0.062l0,5.679l-0.583,0c-0.132,0 -0.185,-0.115 -0.212,-0.168c0,0 -0.503,-1.051 -1.166,-2.694c-0.538,-1.307 -1.015,-2.27 -1.015,-2.27l-0.071,0c0,0 0,4.99 0,5.079c0,0.053 -0.106,0.053 -0.221,0.053c-0.106,0 -0.212,0 -0.212,-0.053l0,-5.688l0.574,0Zm58.009,5.326c-0.591,0 -1.457,0.106 -1.457,-2.447c0,-2.552 0.848,-2.446 1.448,-2.446c0.645,0 1.449,-0.106 1.449,2.446c0,2.561 -0.813,2.447 -1.44,2.447Zm28.347,0c-0.592,0 -1.457,0.106 -1.457,-2.447c0,-2.552 0.847,-2.446 1.448,-2.446c0.645,0 1.448,-0.106 1.448,2.446c0,2.561 -0.812,2.447 -1.439,2.447Zm26.88,-0.009l0,-4.884c0,0 0.804,0 1.263,0c0.539,0 1.351,-0.097 1.351,2.455c0,2.526 -0.847,2.429 -1.324,2.429c-0.627,0 -1.29,0 -1.29,0Z" style="fill:#a6a6a6;"/></g></svg>